<?xml version="1.0" encoding="UTF-8"?>
<!DOCTYPE svg PUBLIC "-//W3C//DTD SVG 1.0//EN" "http://www.w3.org/TR/2001/REC-SVG-20010904/DTD/svg10.dtd">
<!-- Creator: CorelDRAW 2026 -->
<svg xmlns="http://www.w3.org/2000/svg" xml:space="preserve" width="78.709mm" height="35.8698mm" version="1.0" style="shape-rendering:geometricPrecision; text-rendering:geometricPrecision; image-rendering:optimizeQuality; fill-rule:evenodd; clip-rule:evenodd"
viewBox="0 0 1931.12 880.06"
 xmlns:xlink="http://www.w3.org/1999/xlink"
 xmlns:xodm="http://www.corel.com/coreldraw/odm/2003">
 <defs>
  <style type="text/css">
   <![CDATA[
    .fil0 {fill:black}
   ]]>
  </style>
 </defs>
 <g id="Layer_x0020_1">
  <metadata id="CorelCorpID_0Corel-Layer"/>
  <g id="_2517258233808">
   <polygon class="fil0" points="34.61,78.42 34.61,157.98 289.89,160.35 -0,797.39 408.31,797.3 408.31,716.3 127.91,716.3 426.39,72.02 34.61,72.02 "/>
   <path class="fil0" d="M453.15 880.06l931.2 0 -465.33 -880.06 -465.87 880.06zm292.78 -420.48l171.69 -316.48 170.65 314.41 -166.41 315.17 -175.93 -313.1zm-28.92 60.78l149.5 290.27 -298.23 0 148.73 -290.27zm406.69 1.62l-153.22 285.92 305.07 0 -151.85 -285.92z"/>
   <polygon class="fil0" points="1414.26,72.03 1510.61,72.03 1510.61,710.8 1787.36,710.8 1787.36,797.18 1412.66,797.18 "/>
   <polygon class="fil0" points="1838.44,72.13 1931.12,72.13 1931.12,797.09 1835.15,797.09 "/>
  </g>
 </g>
</svg>
